<svg width="201" height="143" viewBox="0 0 201 143" fill="none" xmlns="http://www.w3.org/2000/svg">
<path d="M87.4132 83.405V57.3528V57.1535L86.3498 56.5553L82.7609 54.628L78.9062 52.4348L79.0392 75.8286C79.0392 75.8286 78.9071 77.1525 78.8398 77.5565C78.7733 77.9553 78.7069 78.487 78.5075 79.1516C78.2596 79.9779 77.7099 81.1454 77.3776 81.677C77.0453 82.2087 76.5125 82.7416 75.9155 83.3385C75.3838 83.8702 74.9851 84.136 74.4534 84.5348C74.1891 84.733 73.7888 85 73.7888 85H108.614C108.614 85 110.074 84.9667 111.007 84.8671C112.31 84.7278 112.839 84.6896 114.13 84.4683C115.26 84.2748 116.456 84.0031 117.055 83.7373C117.453 83.5601 118.079 83.1628 118.517 82.7404C119.059 82.2164 119.355 81.9018 119.779 81.2783C120.224 80.6259 120.42 80.2181 120.71 79.4839C121.14 78.3945 121.213 77.7195 121.374 76.5596C121.568 75.1706 121.571 74.3719 121.507 72.9708C121.433 71.3208 121.314 70.3852 120.909 68.7839C120.579 67.4789 120.309 66.7649 119.779 65.5274C119.167 64.0972 118.764 63.3109 117.919 62.005C117.154 60.8241 116.657 60.201 115.725 59.1472C114.411 57.6616 113.539 56.9474 112.004 55.6914C109.864 53.9408 108.502 53.1643 106.155 51.7038C102.409 49.3726 100.126 48.3719 96.1859 46.387C92.1837 44.371 89.6713 43.757 85.8181 41.469C83.1688 39.8959 81.6275 39.0409 79.305 37.0162C77.9539 35.8384 76.7874 34.5659 76.0559 33.7678L76.0484 33.7597C75.3174 32.9622 74.2706 31.2342 73.8552 30.2374C73.4399 29.2405 73.1242 28.4429 72.9248 27.2467C72.7254 26.0504 72.6642 25.5097 72.659 24.3889C72.6508 22.6344 72.6873 21.5956 73.2571 19.9361C73.5738 19.0137 73.8362 18.523 74.3205 17.6765C74.6744 17.0579 74.8645 16.6982 75.3174 16.1479C75.7139 15.6661 76.4472 15.0181 76.4472 15.0181V11.8281C76.4472 11.8281 75.2884 12.5632 74.5863 13.0908C73.1179 14.1942 72.2963 14.8617 71.1304 16.2809C69.5524 18.2014 68.9461 19.5361 68.0732 21.8635C67.4144 23.6199 67.1269 24.6565 66.8769 26.5156C66.5308 29.089 66.6488 30.6004 67.0763 33.1616C67.4225 35.2363 67.6418 36.4427 68.5384 38.3454C69.1494 39.642 69.6383 40.2986 70.4658 41.469C71.6034 43.0781 72.3345 43.9246 73.7223 45.3237C74.706 46.3152 75.2858 46.8491 76.3807 47.7162C77.9835 48.9854 79.014 49.522 80.7671 50.574C81.8934 51.2498 82.5391 51.6051 83.6914 52.2355C85.5347 53.2437 86.5935 53.7625 88.4765 54.6945C91.4529 56.1675 93.1851 56.8609 96.1859 58.2833C99.1545 59.6904 100.933 60.2698 103.762 61.9385C105.84 63.1635 106.996 63.889 108.88 65.3944C110.33 66.553 111.259 67.1229 112.402 68.5845C113.412 69.875 113.947 70.6844 114.463 72.2398C114.804 73.2689 114.881 73.8864 114.994 74.9646C115.13 76.2552 115.3 77.0265 114.994 78.2876C114.789 79.1355 114.579 79.5995 114.13 80.3478C113.759 80.9668 113.557 81.3509 113 81.81C112.605 82.1356 112.334 82.2564 111.871 82.4745C110.948 82.9092 110.348 82.9561 109.345 83.1391C108.395 83.3125 107.85 83.347 106.886 83.405C105.668 83.4783 103.762 83.405 103.762 83.405H87.4132Z" fill="#985F5F"/>
<path fill-rule="evenodd" clip-rule="evenodd" d="M77.3089 33.4291V9.37079C77.3089 9.37079 77.2809 8.55926 77.2425 8.0416C77.2036 7.51815 77.176 7.24409 77.1095 6.71241C77.0396 6.15301 76.7983 5.3415 76.4449 4.51925C76.2616 4.09268 76.1514 3.85444 75.9133 3.4559C75.5804 2.89891 75.365 2.59542 74.9164 2.1267C74.4958 1.68741 74.2281 1.4641 73.7201 1.12981C73.1868 0.778888 72.8622 0.604819 72.2579 0.398757C71.9779 0.303238 71.5269 0.199379 71.5269 0.199379V0L100.769 0.199379C100.769 0.199379 103.412 0.148598 105.089 0.332298C107.037 0.545584 108.125 0.785503 110.007 1.32919C111.846 1.86014 112.878 2.20878 114.593 3.05714C115.834 3.67082 116.512 4.06448 117.65 4.85154C118.774 5.62816 119.407 6.08125 120.375 7.04471C121.303 7.96821 121.751 8.56411 122.502 9.63663C122.537 9.68621 122.571 9.73472 122.604 9.78227C123.238 10.6858 123.629 11.2444 124.097 12.295C124.433 13.0494 124.568 13.5194 124.786 14.2746C124.8 14.3224 124.814 14.3714 124.828 14.4217C125.232 15.8204 125.399 16.6301 125.559 18.077C125.762 19.9085 125.752 20.963 125.559 22.7956C125.401 24.294 125.299 25.1525 124.828 26.5838C124.342 28.0615 123.914 28.8468 123.1 30.1726C122.354 31.3894 121.867 32.0403 120.907 33.0968C119.832 34.2806 119.152 34.8939 117.85 35.8217C116.204 36.9935 115.169 37.5421 113.264 38.2142C112.225 38.5808 110.539 38.9453 110.539 38.9453V39.1447C110.539 39.1447 112.987 39.2608 114.527 39.5434C116.828 39.9659 118.089 40.4239 120.242 41.3378C121.909 42.0452 122.835 42.493 124.363 43.4645C125.677 44.3 126.398 44.8123 127.553 45.8571C128.752 46.9417 129.4 47.6023 130.344 48.9142C131.2 50.1028 131.587 50.843 132.205 52.1707C132.618 53.0576 132.819 53.5711 133.136 54.4968C133.476 55.4919 133.653 56.0589 133.867 57.0887C134.155 58.4788 134.193 59.3226 134.253 60.6698C134.257 60.7587 134.261 60.8498 134.266 60.9434C134.271 61.0553 134.276 61.1626 134.281 61.2663C134.327 62.2672 134.358 62.9226 134.266 64.0005C134.171 65.1016 134.041 65.7133 133.8 66.7918C133.469 68.2742 133.241 69.1058 132.67 70.5135C132.043 72.0629 131.629 72.9278 130.677 74.3017C129.942 75.3614 129.453 75.907 128.55 76.8272C127.388 78.0107 126.645 78.5909 125.293 79.552C123.588 80.7649 120.641 82.2104 120.641 82.2104L120.841 81.4794C120.841 81.4794 121.63 79.7389 121.904 78.5552C122.137 77.5496 122.17 76.9265 122.222 75.962C122.226 75.8767 122.231 75.7886 122.236 75.6974C122.292 74.6867 122.236 73.1055 122.236 73.1055C122.236 73.1055 123.153 71.3244 123.565 70.1148C123.996 68.8518 124.153 68.1098 124.363 66.7918C124.584 65.4018 124.599 64.5359 124.62 63.2506C124.623 63.0871 124.625 62.9168 124.629 62.7378C124.661 61.0503 124.675 60.0962 124.496 58.4179C124.373 57.2681 124.293 56.6198 124.031 55.4937C123.637 53.807 123.319 52.8679 122.568 51.3068C121.826 49.7618 121.328 48.9116 120.242 47.585C119.056 46.135 118.249 45.4107 116.72 44.3285C115.232 43.2754 114.289 42.8189 112.599 42.1353C110.487 41.2809 109.21 40.9711 106.95 40.6732C105.944 40.5405 104.358 40.4739 104.358 40.4739H87.4774C87.4774 40.4739 83.0245 38.0148 81.363 36.885C79.6427 35.7152 77.3089 33.4291 77.3089 33.4291ZM86.5467 1.34824C86.5467 1.34824 96.7816 1.25614 98.3766 1.48116C98.4676 1.49399 98.554 1.5061 98.637 1.51772C99.2904 1.60926 99.728 1.67057 100.437 1.81346C101.381 2.00376 101.908 2.13291 102.829 2.41159C102.935 2.44343 103.036 2.47374 103.133 2.50298C104.039 2.77493 104.637 2.95454 105.554 3.40848C106.696 3.97382 108.08 5.05131 109.01 5.84883C109.941 6.64634 111.92 9.10364 112.501 10.1827C113.081 11.2222 113.513 12.117 113.928 13.4439C114.316 14.6826 114.556 16.4323 114.659 17.365C114.792 18.5613 114.792 20.555 114.792 21.5519C114.792 22.3495 114.66 24.3432 114.46 25.473C114.26 26.6029 114.002 27.6874 113.397 29.0619C112.745 30.5408 112.334 31.3792 111.336 32.6507C110.419 33.8203 109.79 34.4029 108.612 35.3091C107.433 36.2152 106.086 36.9041 106.086 36.9041C105.263 37.2996 104.619 37.4772 103.853 37.6884C103.607 37.7563 103.349 37.8276 103.068 37.9107C102.603 38.0482 101.453 38.2333 100.969 38.2333H97.845H86.5467V19.7908V1.34824Z" fill="#985F5F"/>
<path d="M87.345 10.3087V8.78008H90.4687C90.4687 8.78008 91.2386 8.76293 91.7314 8.78008C92.2243 8.79724 93.2822 8.92972 94.2569 9.11238C95.0736 9.26542 95.5191 9.34623 96.3172 9.5776C97.5548 9.9364 98.2301 10.1999 99.4408 10.6409C100.46 11.0121 101.032 11.2207 102.033 11.6378C103.298 12.165 103.976 12.5322 105.223 13.1C106.312 13.5956 106.913 13.895 108.014 14.3627C108.711 14.6585 109.078 14.8943 109.809 15.0937C110.235 15.21 110.499 15.205 110.938 15.1602C111.283 15.1251 111.463 15.0965 111.802 15.0273C112.087 14.9693 112.534 14.8279 112.534 14.8279C112.534 14.8279 112.746 15.473 112.866 15.8913C112.986 16.3095 113.117 17.2204 113.198 17.9515C113.294 18.8155 113.398 19.7888 113.398 21.0086C113.398 22.0727 113.398 22.7366 113.331 23.667C113.307 24.0075 113.198 24.531 113.198 24.531C113.198 24.531 112.184 22.735 111.404 21.6732C110.327 20.209 109.586 19.4874 108.284 18.2213L108.28 18.2173C107.146 17.1141 106.498 16.4958 105.223 15.559C103.899 14.5864 103.081 14.1439 101.634 13.3658L101.624 13.3606C100.588 12.803 100 12.487 98.9091 12.0366C97.1558 11.3129 96.1172 11.0116 94.2569 10.6409C92.7951 10.3497 91.9584 10.2893 90.4687 10.2422C89.2483 10.2036 87.345 10.3087 87.345 10.3087Z" fill="#985F5F"/>
<path d="M13.8867 92.1094L14.0625 95.8359H13.6172C13.5312 95.1797 13.4141 94.7109 13.2656 94.4297C13.0234 93.9766 12.6992 93.6445 12.293 93.4336C11.8945 93.2148 11.3672 93.1055 10.7109 93.1055H8.47266V105.246C8.47266 106.223 8.57812 106.832 8.78906 107.074C9.08594 107.402 9.54297 107.566 10.1602 107.566H10.7109V108H3.97266V107.566H4.53516C5.20703 107.566 5.68359 107.363 5.96484 106.957C6.13672 106.707 6.22266 106.137 6.22266 105.246V93.1055H4.3125C3.57031 93.1055 3.04297 93.1602 2.73047 93.2695C2.32422 93.418 1.97656 93.7031 1.6875 94.125C1.39844 94.5469 1.22656 95.1172 1.17188 95.8359H0.726562L0.914062 92.1094H13.8867ZM19.6055 99.4805H26.9883V94.9336C26.9883 94.1211 26.9375 93.5859 26.8359 93.3281C26.7578 93.1328 26.5938 92.9648 26.3438 92.8242C26.0078 92.6367 25.6523 92.543 25.2773 92.543H24.7148V92.1094H31.5117V92.543H30.9492C30.5742 92.543 30.2188 92.6328 29.8828 92.8125C29.6328 92.9375 29.4609 93.1289 29.3672 93.3867C29.2812 93.6367 29.2383 94.1523 29.2383 94.9336V105.188C29.2383 105.992 29.2891 106.523 29.3906 106.781C29.4688 106.977 29.6289 107.145 29.8711 107.285C30.2148 107.473 30.5742 107.566 30.9492 107.566H31.5117V108H24.7148V107.566H25.2773C25.9258 107.566 26.3984 107.375 26.6953 106.992C26.8906 106.742 26.9883 106.141 26.9883 105.188V100.348H19.6055V105.188C19.6055 105.992 19.6562 106.523 19.7578 106.781C19.8359 106.977 20 107.145 20.25 107.285C20.5859 107.473 20.9414 107.566 21.3164 107.566H21.8906V108H15.082V107.566H15.6445C16.3008 107.566 16.7773 107.375 17.0742 106.992C17.2617 106.742 17.3555 106.141 17.3555 105.188V94.9336C17.3555 94.1211 17.3047 93.5859 17.2031 93.3281C17.125 93.1328 16.9648 92.9648 16.7227 92.8242C16.3789 92.6367 16.0195 92.543 15.6445 92.543H15.082V92.1094H21.8906V92.543H21.3164C20.9414 92.543 20.5859 92.6328 20.25 92.8125C20.0078 92.9375 19.8398 93.1289 19.7461 93.3867C19.6523 93.6367 19.6055 94.1523 19.6055 94.9336V99.4805ZM37.0312 92.9766V99.2578H40.5234C41.4297 99.2578 42.0352 99.1211 42.3398 98.8477C42.7461 98.4883 42.9727 97.8555 43.0195 96.9492H43.4531V102.48H43.0195C42.9102 101.707 42.8008 101.211 42.6914 100.992C42.5508 100.719 42.3203 100.504 42 100.348C41.6797 100.191 41.1875 100.113 40.5234 100.113H37.0312V105.352C37.0312 106.055 37.0625 106.484 37.125 106.641C37.1875 106.789 37.2969 106.91 37.4531 107.004C37.6094 107.09 37.9062 107.133 38.3438 107.133H41.0391C41.9375 107.133 42.5898 107.07 42.9961 106.945C43.4023 106.82 43.793 106.574 44.168 106.207C44.6523 105.723 45.1484 104.992 45.6562 104.016H46.125L44.7539 108H32.5078V107.566H33.0703C33.4453 107.566 33.8008 107.477 34.1367 107.297C34.3867 107.172 34.5547 106.984 34.6406 106.734C34.7344 106.484 34.7812 105.973 34.7812 105.199V94.875C34.7812 93.8672 34.6797 93.2461 34.4766 93.0117C34.1953 92.6992 33.7266 92.543 33.0703 92.543H32.5078V92.1094H44.7539L44.9297 95.5898H44.4727C44.3086 94.7539 44.125 94.1797 43.9219 93.8672C43.7266 93.5547 43.4336 93.3164 43.043 93.1523C42.7305 93.0352 42.1797 92.9766 41.3906 92.9766H37.0312ZM63.7734 99.8906C64.875 100.125 65.6992 100.5 66.2461 101.016C67.0039 101.734 67.3828 102.613 67.3828 103.652C67.3828 104.441 67.1328 105.199 66.6328 105.926C66.1328 106.645 65.4453 107.172 64.5703 107.508C63.7031 107.836 62.375 108 60.5859 108H53.0859V107.566H53.6836C54.3477 107.566 54.8242 107.355 55.1133 106.934C55.293 106.66 55.3828 106.078 55.3828 105.188V94.9219C55.3828 93.9375 55.2695 93.3164 55.043 93.0586C54.7383 92.7148 54.2852 92.543 53.6836 92.543H53.0859V92.1094H59.9531C61.2344 92.1094 62.2617 92.2031 63.0352 92.3906C64.207 92.6719 65.1016 93.1719 65.7188 93.8906C66.3359 94.6016 66.6445 95.4219 66.6445 96.3516C66.6445 97.1484 66.4023 97.8633 65.918 98.4961C65.4336 99.1211 64.7188 99.5859 63.7734 99.8906ZM57.6328 99.2578C57.9219 99.3125 58.25 99.3555 58.6172 99.3867C58.9922 99.4102 59.4023 99.4219 59.8477 99.4219C60.9883 99.4219 61.8438 99.3008 62.4141 99.0586C62.9922 98.8086 63.4336 98.4297 63.7383 97.9219C64.043 97.4141 64.1953 96.8594 64.1953 96.2578C64.1953 95.3281 63.8164 94.5352 63.0586 93.8789C62.3008 93.2227 61.1953 92.8945 59.7422 92.8945C58.9609 92.8945 58.2578 92.9805 57.6328 93.1523V99.2578ZM57.6328 106.852C58.5391 107.062 59.4336 107.168 60.3164 107.168C61.7305 107.168 62.8086 106.852 63.5508 106.219C64.293 105.578 64.6641 104.789 64.6641 103.852C64.6641 103.234 64.4961 102.641 64.1602 102.07C63.8242 101.5 63.2773 101.051 62.5195 100.723C61.7617 100.395 60.8242 100.23 59.707 100.23C59.2227 100.23 58.8086 100.238 58.4648 100.254C58.1211 100.27 57.8438 100.297 57.6328 100.336V106.852ZM73.7109 92.9766V99.2578H77.2031C78.1094 99.2578 78.7148 99.1211 79.0195 98.8477C79.4258 98.4883 79.6523 97.8555 79.6992 96.9492H80.1328V102.48H79.6992C79.5898 101.707 79.4805 101.211 79.3711 100.992C79.2305 100.719 79 100.504 78.6797 100.348C78.3594 100.191 77.8672 100.113 77.2031 100.113H73.7109V105.352C73.7109 106.055 73.7422 106.484 73.8047 106.641C73.8672 106.789 73.9766 106.91 74.1328 107.004C74.2891 107.09 74.5859 107.133 75.0234 107.133H77.7188C78.6172 107.133 79.2695 107.07 79.6758 106.945C80.082 106.82 80.4727 106.574 80.8477 106.207C81.332 105.723 81.8281 104.992 82.3359 104.016H82.8047L81.4336 108H69.1875V107.566H69.75C70.125 107.566 70.4805 107.477 70.8164 107.297C71.0664 107.172 71.2344 106.984 71.3203 106.734C71.4141 106.484 71.4609 105.973 71.4609 105.199V94.875C71.4609 93.8672 71.3594 93.2461 71.1562 93.0117C70.875 92.6992 70.4062 92.543 69.75 92.543H69.1875V92.1094H81.4336L81.6094 95.5898H81.1523C80.9883 94.7539 80.8047 94.1797 80.6016 93.8672C80.4062 93.5547 80.1133 93.3164 79.7227 93.1523C79.4102 93.0352 78.8594 92.9766 78.0703 92.9766H73.7109ZM94.3477 102.68H88.1953L87.1172 105.188C86.8516 105.805 86.7188 106.266 86.7188 106.57C86.7188 106.812 86.832 107.027 87.0586 107.215C87.293 107.395 87.793 107.512 88.5586 107.566V108H83.5547V107.566C84.2188 107.449 84.6484 107.297 84.8438 107.109C85.2422 106.734 85.6836 105.973 86.168 104.824L91.7578 91.7461H92.168L97.6992 104.965C98.1445 106.027 98.5469 106.719 98.9062 107.039C99.2734 107.352 99.7812 107.527 100.43 107.566V108H94.1602V107.566C94.793 107.535 95.2188 107.43 95.4375 107.25C95.6641 107.07 95.7773 106.852 95.7773 106.594C95.7773 106.25 95.6211 105.707 95.3086 104.965L94.3477 102.68ZM94.0195 101.812L91.3242 95.3906L88.5586 101.812H94.0195ZM112.16 92.543V92.1094H117.785V92.543H117.188C116.562 92.543 116.082 92.8047 115.746 93.3281C115.582 93.5703 115.5 94.1328 115.5 95.0156V101.461C115.5 103.055 115.34 104.293 115.02 105.176C114.707 106.051 114.086 106.805 113.156 107.438C112.234 108.062 110.977 108.375 109.383 108.375C107.648 108.375 106.332 108.074 105.434 107.473C104.535 106.871 103.898 106.062 103.523 105.047C103.273 104.352 103.148 103.047 103.148 101.133V94.9219C103.148 93.9453 103.012 93.3047 102.738 93C102.473 92.6953 102.039 92.543 101.438 92.543H100.84V92.1094H107.707V92.543H107.098C106.441 92.543 105.973 92.75 105.691 93.1641C105.496 93.4453 105.398 94.0312 105.398 94.9219V101.848C105.398 102.465 105.453 103.172 105.562 103.969C105.68 104.766 105.887 105.387 106.184 105.832C106.48 106.277 106.906 106.645 107.461 106.934C108.023 107.223 108.711 107.367 109.523 107.367C110.562 107.367 111.492 107.141 112.312 106.688C113.133 106.234 113.691 105.656 113.988 104.953C114.293 104.242 114.445 103.043 114.445 101.355V94.9219C114.445 93.9297 114.336 93.3086 114.117 93.0586C113.812 92.7148 113.359 92.543 112.758 92.543H112.16ZM131.941 92.1094L132.117 95.8359H131.672C131.586 95.1797 131.469 94.7109 131.32 94.4297C131.078 93.9766 130.754 93.6445 130.348 93.4336C129.949 93.2148 129.422 93.1055 128.766 93.1055H126.527V105.246C126.527 106.223 126.633 106.832 126.844 107.074C127.141 107.402 127.598 107.566 128.215 107.566H128.766V108H122.027V107.566H122.59C123.262 107.566 123.738 107.363 124.02 106.957C124.191 106.707 124.277 106.137 124.277 105.246V93.1055H122.367C121.625 93.1055 121.098 93.1602 120.785 93.2695C120.379 93.418 120.031 93.7031 119.742 94.125C119.453 94.5469 119.281 95.1172 119.227 95.8359H118.781L118.969 92.1094H131.941ZM144.164 92.1094H149.707V92.543H149.402C149.199 92.543 148.902 92.6328 148.512 92.8125C148.121 92.9922 147.766 93.25 147.445 93.5859C147.125 93.9219 146.73 94.4688 146.262 95.2266L142.43 101.262V105.246C142.43 106.223 142.539 106.832 142.758 107.074C143.055 107.402 143.523 107.566 144.164 107.566H144.68V108H137.93V107.566H138.492C139.164 107.566 139.641 107.363 139.922 106.957C140.094 106.707 140.18 106.137 140.18 105.246V101.484L135.82 94.8281C135.305 94.0469 134.953 93.5586 134.766 93.3633C134.586 93.168 134.207 92.9336 133.629 92.6602C133.473 92.582 133.246 92.543 132.949 92.543V92.1094H139.746V92.543H139.395C139.027 92.543 138.688 92.6289 138.375 92.8008C138.07 92.9727 137.918 93.2305 137.918 93.5742C137.918 93.8555 138.156 94.3633 138.633 95.0977L141.949 100.219L145.066 95.3203C145.535 94.5859 145.77 94.0391 145.77 93.6797C145.77 93.4609 145.711 93.2656 145.594 93.0938C145.484 92.9219 145.324 92.7891 145.113 92.6953C144.902 92.5938 144.586 92.543 144.164 92.543V92.1094ZM167.074 91.7461V97.2422H166.641C166.5 96.1875 166.246 95.3477 165.879 94.7227C165.52 94.0977 165.004 93.6016 164.332 93.2344C163.66 92.8672 162.965 92.6836 162.246 92.6836C161.434 92.6836 160.762 92.9336 160.23 93.4336C159.699 93.9258 159.434 94.4883 159.434 95.1211C159.434 95.6055 159.602 96.0469 159.938 96.4453C160.422 97.0312 161.574 97.8125 163.395 98.7891C164.879 99.5859 165.891 100.199 166.43 100.629C166.977 101.051 167.395 101.551 167.684 102.129C167.98 102.707 168.129 103.312 168.129 103.945C168.129 105.148 167.66 106.188 166.723 107.062C165.793 107.93 164.594 108.363 163.125 108.363C162.664 108.363 162.23 108.328 161.824 108.258C161.582 108.219 161.078 108.078 160.312 107.836C159.555 107.586 159.074 107.461 158.871 107.461C158.676 107.461 158.52 107.52 158.402 107.637C158.293 107.754 158.211 107.996 158.156 108.363H157.723V102.914H158.156C158.359 104.055 158.633 104.91 158.977 105.48C159.32 106.043 159.844 106.512 160.547 106.887C161.258 107.262 162.035 107.449 162.879 107.449C163.855 107.449 164.625 107.191 165.188 106.676C165.758 106.16 166.043 105.551 166.043 104.848C166.043 104.457 165.934 104.062 165.715 103.664C165.504 103.266 165.172 102.895 164.719 102.551C164.414 102.316 163.582 101.82 162.223 101.062C160.863 100.297 159.895 99.6875 159.316 99.2344C158.746 98.7812 158.312 98.2812 158.016 97.7344C157.719 97.1875 157.57 96.5859 157.57 95.9297C157.57 94.7891 158.008 93.8086 158.883 92.9883C159.758 92.1602 160.871 91.7461 162.223 91.7461C163.066 91.7461 163.961 91.9531 164.906 92.3672C165.344 92.5625 165.652 92.6602 165.832 92.6602C166.035 92.6602 166.199 92.6016 166.324 92.4844C166.457 92.3594 166.562 92.1133 166.641 91.7461H167.074ZM174.352 100.559V105.188C174.352 106.188 174.461 106.809 174.68 107.051C174.977 107.395 175.426 107.566 176.027 107.566H176.637V108H169.828V107.566H170.426C171.098 107.566 171.578 107.348 171.867 106.91C172.023 106.668 172.102 106.094 172.102 105.188V94.9219C172.102 93.9219 171.996 93.3008 171.785 93.0586C171.48 92.7148 171.027 92.543 170.426 92.543H169.828V92.1094H175.652C177.074 92.1094 178.195 92.2578 179.016 92.5547C179.836 92.8438 180.527 93.3359 181.09 94.0312C181.652 94.7266 181.934 95.5508 181.934 96.5039C181.934 97.8008 181.504 98.8555 180.645 99.668C179.793 100.48 178.586 100.887 177.023 100.887C176.641 100.887 176.227 100.859 175.781 100.805C175.336 100.75 174.859 100.668 174.352 100.559ZM174.352 99.8906C174.766 99.9688 175.133 100.027 175.453 100.066C175.773 100.105 176.047 100.125 176.273 100.125C177.086 100.125 177.785 99.8125 178.371 99.1875C178.965 98.5547 179.262 97.7383 179.262 96.7383C179.262 96.0508 179.121 95.4141 178.84 94.8281C178.559 94.2344 178.16 93.793 177.645 93.5039C177.129 93.207 176.543 93.0586 175.887 93.0586C175.488 93.0586 174.977 93.1328 174.352 93.2812V99.8906ZM193.77 102.68H187.617L186.539 105.188C186.273 105.805 186.141 106.266 186.141 106.57C186.141 106.812 186.254 107.027 186.48 107.215C186.715 107.395 187.215 107.512 187.98 107.566V108H182.977V107.566C183.641 107.449 184.07 107.297 184.266 107.109C184.664 106.734 185.105 105.973 185.59 104.824L191.18 91.7461H191.59L197.121 104.965C197.566 106.027 197.969 106.719 198.328 107.039C198.695 107.352 199.203 107.527 199.852 107.566V108H193.582V107.566C194.215 107.535 194.641 107.43 194.859 107.25C195.086 107.07 195.199 106.852 195.199 106.594C195.199 106.25 195.043 105.707 194.73 104.965L193.77 102.68ZM193.441 101.812L190.746 95.3906L187.98 101.812H193.441Z" fill="#985F5F"/>
<path fill-rule="evenodd" clip-rule="evenodd" d="M123.93 118.907C123.847 119.073 123.847 119.239 123.93 119.405C124.013 119.571 124.356 119.508 124.594 119.405C125.176 119.156 126.229 118.326 126.837 117.827C126.888 117.785 126.943 117.741 127 117.694L127.001 117.693C127.618 117.189 128.533 116.443 128.913 115.834C129.251 115.292 129.48 114.837 129.577 114.339C129.659 113.924 129.722 113.459 129.577 112.927C129.452 112.465 129.245 112.097 128.996 111.847C128.702 111.554 128.082 111.36 127.75 111.266C127.273 111.132 126.749 111.062 126.255 111.017C125.342 110.934 121.853 111.183 121.853 111.183C121.853 111.183 119.205 111.497 117.535 111.847C115.524 112.269 113.499 112.916 112.468 113.259C110.724 113.841 108.648 114.837 107.319 115.502C105.99 116.166 104.678 117.067 103.914 117.661C103.166 118.243 102.281 118.976 101.754 119.821C101.378 120.424 101.107 120.983 101.007 121.482C100.907 121.98 100.829 122.593 100.841 122.811C100.842 122.837 100.844 122.864 100.845 122.891L100.845 122.891C100.853 123.082 100.861 123.288 101.007 123.724C101.144 124.136 101.476 124.545 101.848 125.005C101.926 125.102 102.006 125.201 102.087 125.302C102.585 125.932 103.413 126.711 104.329 127.545C104.7 127.882 105.266 128.338 105.784 128.755L105.784 128.755L105.784 128.755C106.159 129.057 106.508 129.338 106.738 129.538C106.882 129.663 107.074 129.795 107.278 129.936C107.751 130.261 108.283 130.626 108.399 131.033C108.452 131.22 108.482 131.448 108.399 131.531C108.23 131.7 107.678 131.869 107.211 132.012L107.211 132.012L107.211 132.012L107.211 132.012L107.211 132.013C106.99 132.08 106.788 132.142 106.655 132.196C106.137 132.402 104.932 133.013 104.495 133.275L104.488 133.279C104.069 133.531 103.105 134.109 102.917 134.77C102.793 135.207 102.785 135.588 102.917 135.933C103.049 136.278 103.201 136.461 103.499 136.68C103.797 136.899 104.495 137.013 104.911 137.013C105.326 137.013 106.252 136.864 106.655 136.764C107.153 136.639 108.606 136.099 108.98 135.85C109.354 135.601 110.06 134.687 110.226 134.272C110.392 133.857 110.475 132.882 110.392 132.445C110.371 132.334 110.332 132.227 110.298 132.131C110.259 132.025 110.226 131.933 110.226 131.863C110.226 131.73 110.306 131.533 110.475 131.448C110.691 131.34 111.351 131.223 112.089 131.092L112.089 131.092C112.489 131.021 112.911 130.946 113.299 130.867C114.402 130.64 113.88 131.033 113.88 131.033C113.88 131.033 112.468 132.697 112.634 132.943C112.737 133.095 112.805 133.189 112.967 133.275C113.225 133.412 113.508 133.482 113.714 133.275C113.857 133.132 114.262 132.604 114.723 132.003L114.723 132.003C115.333 131.208 116.041 130.284 116.372 129.953C116.429 129.896 116.49 129.829 116.552 129.762C116.791 129.499 117.048 129.217 117.202 129.372C117.286 129.455 117.233 129.642 117.202 129.704L117.183 129.744C117.102 129.904 116.997 130.113 116.87 130.451C116.842 130.527 116.814 130.598 116.788 130.664L116.788 130.666L116.788 130.666C116.662 130.987 116.57 131.225 116.538 131.614C116.522 131.808 116.538 131.863 116.621 132.029C116.704 132.196 117.135 132.196 117.285 132.196H117.286C117.452 132.196 117.701 132.113 117.95 132.029C118.055 131.994 118.337 131.819 118.531 131.697C118.577 131.669 118.637 131.621 118.702 131.571C118.825 131.474 118.962 131.367 119.03 131.365C119.094 131.363 119.091 131.593 119.089 131.828C119.086 132.009 119.084 132.194 119.113 132.279C119.175 132.465 119.302 132.634 119.445 132.777C119.611 132.943 119.989 133.026 120.358 133.026C120.715 133.026 121.142 132.87 121.617 132.697L121.617 132.697C121.695 132.668 121.773 132.639 121.853 132.611C122.387 132.42 122.876 132.185 123.099 132.029C123.177 131.975 123.255 131.915 123.33 131.857C123.457 131.759 123.577 131.666 123.681 131.614C123.797 131.556 123.93 131.531 124.013 131.614C124.067 131.668 124.025 131.77 123.983 131.871L123.983 131.871C123.96 131.926 123.937 131.982 123.93 132.029C123.926 132.051 123.921 132.077 123.914 132.107C123.885 132.241 123.84 132.446 123.93 132.611C124.018 132.772 124.098 132.861 124.262 132.943C124.594 133.109 125.053 133.039 125.342 132.943C125.591 132.86 125.981 132.636 126.172 132.445C126.192 132.425 126.225 132.392 126.267 132.351L126.268 132.35C126.402 132.218 126.62 132.002 126.754 131.863C126.799 131.816 126.846 131.757 126.893 131.699C126.992 131.574 127.089 131.452 127.169 131.448C127.182 131.447 127.195 131.446 127.209 131.445C127.306 131.438 127.418 131.429 127.418 131.531C127.418 131.573 127.397 131.614 127.366 131.677C127.335 131.739 127.293 131.822 127.252 131.946C127.215 132.058 127.169 132.196 127.169 132.279C127.169 132.396 127.41 132.553 127.584 132.611C127.833 132.694 128.498 132.611 128.747 132.528C128.996 132.445 129.531 132.139 129.993 131.78C130.59 131.316 131.405 130.535 131.405 130.451C131.404 130.368 131.376 130.334 131.321 130.285C131.267 130.237 131.114 130.25 130.989 130.285C130.887 130.315 130.714 130.516 130.571 130.684C130.508 130.757 130.452 130.823 130.408 130.867C130.242 131.033 129.577 131.531 129.411 131.614C129.377 131.631 129.334 131.658 129.286 131.688C129.172 131.76 129.029 131.849 128.913 131.863C128.749 131.884 128.59 131.852 128.498 131.78C128.405 131.709 128.332 131.614 128.332 131.531C128.331 131.476 128.378 131.353 128.427 131.225C128.452 131.159 128.478 131.093 128.498 131.033C128.566 130.827 128.71 130.603 128.836 130.407L128.836 130.406L128.836 130.406C128.863 130.364 128.889 130.324 128.913 130.285C128.965 130.201 129.044 130.124 129.128 130.041C129.266 129.905 129.418 129.755 129.494 129.538C129.51 129.493 129.529 129.45 129.548 129.408C129.606 129.28 129.657 129.166 129.577 129.04C129.501 128.918 129.385 128.903 129.251 128.886C129.222 128.882 129.192 128.878 129.162 128.873L129.161 128.873C129.033 128.852 128.912 128.833 128.83 128.873C128.748 128.914 128.664 128.999 128.664 129.04C128.664 129.08 128.645 129.345 128.581 129.372C128.498 129.407 128.415 129.372 128.415 129.372C128.345 129.351 128.306 129.333 128.248 129.289C128.201 129.251 128.181 129.207 128.161 129.162C128.143 129.12 128.124 129.077 128.082 129.04C128.009 128.973 127.569 128.972 127.252 129.04C127.018 129.09 126.874 129.169 126.698 129.267C126.639 129.3 126.576 129.335 126.504 129.372C126.168 129.544 125.979 129.646 125.674 129.87C125.526 129.979 125.424 130.077 125.32 130.176C125.229 130.263 125.136 130.352 125.009 130.451C124.973 130.48 124.939 130.507 124.907 130.532C124.747 130.659 124.63 130.752 124.428 130.867C124.325 130.925 124.256 130.958 124.162 131.002L124.096 131.033C123.944 131.105 123.835 131.149 123.709 131.201C123.65 131.225 123.587 131.251 123.514 131.282C123.415 131.324 123.327 131.362 123.244 131.397L123.244 131.398C123.004 131.5 122.81 131.584 122.518 131.697L122.4 131.743C122.116 131.854 121.924 131.929 121.604 132.029C121.502 132.062 121.424 132.082 121.347 132.102C121.253 132.126 121.159 132.15 121.023 132.196C120.775 132.278 120.608 132.279 120.442 132.196C120.297 132.123 120.194 132.002 120.109 131.863C119.991 131.669 119.973 131.503 120.026 131.282C120.077 131.07 120.138 130.952 120.275 130.784C120.407 130.623 120.5 130.535 120.691 130.451C120.814 130.397 120.911 130.391 121.022 130.384C121.073 130.38 121.127 130.377 121.189 130.368C121.388 130.341 121.548 130.336 121.705 130.331C121.879 130.326 122.05 130.321 122.269 130.285C122.353 130.272 122.43 130.265 122.502 130.258C122.681 130.242 122.833 130.229 123.016 130.119C123.273 129.965 123.404 129.816 123.514 129.538C123.527 129.506 123.54 129.476 123.553 129.446C123.615 129.306 123.667 129.187 123.597 129.04C123.537 128.912 123.441 128.869 123.32 128.815C123.302 128.807 123.284 128.799 123.265 128.79C123.034 128.683 122.807 128.693 122.599 128.702L122.599 128.702C122.543 128.705 122.488 128.707 122.435 128.707C122.185 128.707 121.757 128.741 121.355 128.873C120.978 128.998 120.78 129.171 120.511 129.406C120.463 129.448 120.413 129.492 120.358 129.538C120.143 129.721 120.025 129.849 119.852 130.038L119.777 130.119C119.727 130.173 119.686 130.22 119.648 130.262C119.534 130.391 119.456 130.478 119.279 130.618C119.122 130.741 118.916 130.859 118.764 130.946C118.704 130.98 118.652 131.009 118.614 131.033C118.519 131.093 118.441 131.132 118.282 131.199C118.159 131.251 117.95 131.365 117.95 131.365C117.95 131.365 117.719 131.446 117.618 131.365C117.498 131.269 117.54 131.188 117.606 131.057L117.618 131.033L117.867 130.535C117.892 130.484 117.925 130.418 117.961 130.345C118.043 130.177 118.141 129.977 118.199 129.87C118.251 129.775 118.304 129.691 118.35 129.619C118.391 129.555 118.425 129.501 118.448 129.455C118.512 129.328 118.553 129.019 118.448 128.873C118.39 128.793 118.328 128.765 118.245 128.728L118.232 128.722C118.221 128.718 118.21 128.713 118.199 128.707C118.021 128.624 117.684 128.633 117.368 128.707C117.137 128.762 117.012 128.831 116.811 128.943L116.787 128.956C116.538 129.095 116.404 129.212 116.208 129.381L116.208 129.381L116.123 129.455C115.844 129.694 115.699 129.842 115.458 130.119C115.432 130.15 115.403 130.185 115.373 130.22C115.25 130.367 115.11 130.535 115.043 130.535H115.042C114.94 130.534 114.937 130.534 114.877 130.451C114.799 130.343 114.96 130.119 114.96 130.119L115.624 129.289L117.368 126.714L121.355 120.402L122.435 118.575V117.578L122.019 117.246L121.521 117.412L120.691 118.16L118.648 121.233L115.624 126.963L114.711 128.873C114.711 128.873 114.437 129.456 114.379 129.621C114.344 129.717 114.185 130.119 114.046 130.368C113.975 130.498 113.462 130.476 113.082 130.46L113.081 130.46L113.081 130.46C112.972 130.456 112.874 130.451 112.801 130.451C112.468 130.451 111.887 130.472 111.638 130.535C111.562 130.553 111.454 130.577 111.335 130.604L111.335 130.604C111.062 130.664 110.737 130.736 110.641 130.784C110.599 130.805 110.545 130.834 110.488 130.865L110.488 130.865L110.488 130.866C110.362 130.934 110.22 131.012 110.143 131.033C110.049 131.058 109.988 131.055 109.894 131.033C109.79 131.008 109.721 130.875 109.642 130.725L109.642 130.725C109.594 130.633 109.543 130.535 109.478 130.451C109.186 130.069 108.429 129.436 107.653 128.788L107.653 128.787L107.653 128.787L107.653 128.787L107.653 128.787L107.653 128.787C107.249 128.449 106.84 128.107 106.489 127.794L106.346 127.667L106.346 127.667L106.346 127.667C105.339 126.769 104.05 125.619 103.416 124.887L103.325 124.783C103.059 124.475 102.818 124.197 102.668 123.973L102.657 123.956L102.632 123.921C102.49 123.716 102.162 123.242 102.087 122.561C102.014 121.904 102.261 121.312 102.435 120.896C102.459 120.838 102.482 120.784 102.502 120.734C102.668 120.319 103.283 119.551 103.914 118.907C104.729 118.076 105.41 117.692 106.279 117.202L106.279 117.202C106.525 117.063 106.786 116.916 107.07 116.748C108.504 115.896 109.358 115.497 110.89 114.837C111.721 114.48 113.541 113.778 115.292 113.259C117.238 112.683 118.359 112.449 120.358 112.097C120.604 112.053 120.83 112.012 121.045 111.973L121.045 111.973C122.04 111.792 122.772 111.658 123.93 111.598C124.113 111.589 124.287 111.577 124.454 111.565C125.056 111.524 125.569 111.488 126.089 111.598C126.588 111.704 127.38 111.931 127.75 112.263C128.028 112.512 128.421 112.891 128.498 113.425C128.572 113.944 128.338 114.506 128.207 114.819C128.192 114.856 128.177 114.891 128.165 114.92C128.018 115.288 127.574 115.786 127.218 116.183L127.218 116.183L127.218 116.184C127.172 116.235 127.128 116.285 127.086 116.332C126.523 116.968 126.171 117.297 125.508 117.827C125.221 118.057 124.854 118.282 124.545 118.471C124.228 118.666 123.972 118.823 123.93 118.907ZM74.0977 120.07C74.0037 120.14 74.0285 120.402 74.0977 120.485C74.2223 120.635 74.4303 120.587 74.596 120.485L74.9032 120.296C75.6757 119.82 75.7106 119.798 76.3401 119.488C77.3591 118.987 78.0383 118.777 79.0134 118.476C79.1663 118.428 79.3264 118.379 79.4962 118.326C81.2355 117.78 82.6444 117.506 83.9701 117.248L83.9701 117.248L83.981 117.246C84.1233 117.218 84.3082 117.179 84.5262 117.133L84.5262 117.133L84.5263 117.133C85.4535 116.938 86.9802 116.615 88.3829 116.498C88.464 116.492 88.5507 116.484 88.6427 116.476L88.6427 116.476C89.6799 116.387 91.3734 116.241 93.0339 116.415C93.8187 116.498 94.2616 116.556 95.0272 116.748L95.1042 116.767C95.4206 116.844 95.7809 116.933 95.8577 117.163C95.909 117.317 95.8954 117.454 95.8577 117.578C95.82 117.703 95.7094 117.897 95.5255 117.993C94.3254 118.622 93.9179 118.778 93.3974 118.977L93.3974 118.977C93.1614 119.067 92.9023 119.166 92.5355 119.322C90.0675 120.372 87.8881 121.047 85.7965 121.694L85.7965 121.694L85.7965 121.694C83.8404 122.3 81.9611 122.881 79.9945 123.724C79.8728 123.776 79.7722 123.844 79.6927 123.897C79.5947 123.962 79.529 124.006 79.4962 123.973C79.4131 123.89 79.4962 123.724 79.4962 123.724C79.4962 123.724 79.5876 123.516 79.6623 123.392C79.9114 122.977 80.4097 122.312 81.0742 121.565C81.8112 120.736 82.7352 119.488 82.8183 119.322C82.9013 119.156 82.9013 119.073 82.8183 118.99C82.7352 118.907 82.4861 118.824 82.0708 119.073C81.8315 119.217 80.7799 120.669 79.8435 121.962L79.8435 121.962L79.8435 121.962L79.8434 121.962C79.1548 122.913 78.5285 123.778 78.3334 123.973C78.0682 124.239 77.7777 124.419 77.5315 124.571L77.5315 124.571L77.5315 124.571C77.3504 124.684 77.1932 124.781 77.0876 124.887C76.8687 125.106 76.9704 125.196 77.0546 125.272L77.0546 125.272C77.0663 125.282 77.0775 125.292 77.0876 125.302C77.1291 125.344 77.1707 125.323 77.2122 125.302C77.2537 125.281 77.2952 125.261 77.3368 125.302C77.4198 125.385 77.306 125.582 77.2537 125.634C77.2014 125.687 76.9694 125.936 76.8384 126.133C76.7074 126.329 74.4039 129.867 73.018 132.362C71.7722 134.604 70.1112 138.508 69.862 139.421C69.6129 140.335 69.563 141.248 69.6129 141.747C69.6627 142.245 69.9547 142.841 70.1942 142.909C70.7098 143.057 70.8988 143.008 71.3986 142.879L71.3986 142.879L71.3986 142.879L71.3986 142.879C71.4623 142.863 71.531 142.845 71.6061 142.826C72.2945 142.654 74.1807 141.771 75.5096 140.833C78.3334 138.84 79.773 137.76 81.9878 135.684C83.4938 134.272 86.0574 131.365 86.8879 130.202C87.435 129.436 87.8845 128.624 88.1337 127.462C88.2913 126.726 88.1337 126.195 87.8845 125.884C87.2201 125.053 85.8913 124.65 85.2268 124.555C84.0641 124.389 81.5725 124.389 78.8317 124.887C78.7041 124.91 78.6569 124.729 78.7487 124.638C78.8166 124.57 78.9655 124.528 79.0875 124.494C79.1147 124.486 79.1406 124.479 79.1639 124.472C80.5564 124.048 81.4262 123.761 82.498 123.408L82.4981 123.408L82.4982 123.408L82.4984 123.408L82.4992 123.408L82.5007 123.408C82.8986 123.277 83.3243 123.136 83.8149 122.977C84.6195 122.715 85.4185 122.456 86.2028 122.202C89.6677 121.08 92.8446 120.052 94.9441 119.239C95.5255 119.014 96.6882 118.326 97.0204 117.661C97.1365 117.429 97.1035 117.246 97.0204 116.997C96.8266 116.415 95.5255 115.923 95.1933 115.834C94.0305 115.524 89.7948 115.668 88.7981 115.834C84.8116 116.498 82.403 116.948 79.4962 117.91C77.3405 118.624 74.7621 119.571 74.0977 120.07ZM89.2134 129.538C89.0903 129.169 88.2168 129.538 88.2168 129.538C88.2168 129.538 88.0586 129.631 87.9676 129.704C87.886 129.77 87.8388 129.822 87.7794 129.887C87.7607 129.907 87.7409 129.929 87.7184 129.953L87.652 130.024L87.6517 130.024C87.5162 130.167 87.4215 130.267 87.3032 130.451C87.1857 130.635 87.1369 130.749 87.054 130.95C86.9132 131.292 86.8415 131.531 86.8879 131.863C86.8942 131.909 86.899 131.951 86.9034 131.99L86.9034 131.99C86.9229 132.161 86.9366 132.281 87.054 132.445C87.1611 132.594 87.3032 132.749 87.3862 132.777C87.4131 132.786 87.4379 132.795 87.4616 132.804C87.5464 132.834 87.6171 132.86 87.7184 132.86C87.8758 132.86 88.0112 132.807 88.2575 132.71L88.2575 132.71L88.2998 132.694L88.3491 132.675L88.3491 132.675C88.5019 132.616 88.6658 132.552 88.7982 132.445C88.8304 132.419 88.8611 132.387 88.8919 132.356C88.9631 132.283 89.0353 132.209 89.1303 132.196C89.2319 132.181 89.3128 132.201 89.3795 132.279C89.4782 132.394 89.3919 132.517 89.2896 132.664C89.2644 132.7 89.2381 132.738 89.2135 132.777C89.1239 132.919 88.9914 133.029 88.8932 133.11L88.8931 133.11C88.8547 133.141 88.8215 133.169 88.7982 133.192C88.696 133.294 88.5561 133.392 88.3995 133.501L88.3995 133.501C88.3146 133.56 88.2249 133.622 88.1337 133.691C87.9061 133.861 87.7112 134.002 87.5269 134.136L87.5264 134.136L87.5261 134.137L87.5259 134.137L87.5259 134.137L87.5259 134.137L87.5258 134.137C87.1851 134.384 86.8805 134.604 86.4726 134.936C85.3694 135.835 84.7528 136.358 83.8149 137.428C83.1435 138.194 82.4044 139.037 82.2369 139.504C82.0694 139.971 81.9878 140.254 81.9878 140.75C81.9878 141.082 81.9956 141.343 82.2369 141.581C82.3919 141.733 82.7352 141.83 82.7352 141.83C82.7352 141.83 83.3997 141.936 83.8149 141.83C84.1472 141.745 84.3522 141.628 84.6455 141.414C85.4449 140.833 86.8049 138.84 86.8049 138.84C87.3032 138.175 87.9677 137.013 88.3829 136.182C88.4584 136.031 88.5515 135.835 88.6531 135.62L88.6532 135.62C88.8872 135.126 89.1664 134.536 89.3795 134.189C89.4059 134.146 89.4322 134.102 89.4593 134.056C89.5891 133.838 89.734 133.595 89.9609 133.358C90.2351 133.073 90.5319 132.814 90.9576 132.528C91.1121 132.424 91.6794 132.107 92.2184 131.806L92.2184 131.806L92.2188 131.806C92.7034 131.535 93.1651 131.278 93.2831 131.199C93.4376 131.096 93.7711 130.855 93.7814 130.784C93.7959 130.682 93.7708 130.607 93.6983 130.534L93.6982 130.534C93.647 130.483 93.6152 130.451 93.5322 130.451C93.3661 130.451 91.8151 131.449 91.3729 131.78C91.0406 132.029 90.7914 132.279 90.7914 132.279C90.7914 132.279 90.6201 132.337 90.5423 132.279C90.4842 132.235 90.4592 132.185 90.4592 132.113C90.4592 132.04 90.6254 131.78 90.7084 131.697C90.7847 131.621 90.8929 131.433 91.0738 131.119L91.0738 131.119L91.0739 131.119L91.0739 131.119L91.074 131.119L91.1236 131.033C91.4837 130.409 91.5944 130.119 91.622 130.036C91.6266 130.022 91.6378 129.992 91.653 129.95L91.6532 129.949L91.6533 129.949L91.6534 129.949L91.6534 129.949C91.7304 129.737 91.9098 129.243 91.8712 129.206C91.8248 129.161 91.622 129.123 91.622 129.123C91.622 129.123 91.3528 129.069 91.2067 129.123C91.145 129.145 91.0198 129.289 90.9386 129.383C90.9105 129.415 90.8877 129.442 90.8745 129.455C90.8094 129.52 90.7139 129.667 90.5887 129.859C90.3945 130.158 90.129 130.566 89.7948 130.95C89.4031 131.399 88.7151 132.029 88.7151 132.029C88.7151 132.029 88.4444 132.193 88.2998 132.113C88.1976 132.056 88.1696 131.975 88.1337 131.863C88.0731 131.676 88.0811 131.555 88.1338 131.365C88.188 131.169 88.3393 130.954 88.5001 130.725L88.5002 130.725C88.544 130.662 88.5885 130.599 88.632 130.534C88.8251 130.249 89.2134 129.87 89.2134 129.87C89.2134 129.87 89.2544 129.661 89.2134 129.538ZM121.355 130.036C121.251 129.958 121.263 129.795 121.355 129.703C121.438 129.62 122.312 129.248 122.435 129.371C122.518 129.454 122.493 129.587 122.435 129.703C122.352 129.87 121.77 130.036 121.687 130.036C121.656 130.036 121.619 130.042 121.58 130.048L121.58 130.048C121.498 130.061 121.408 130.075 121.355 130.036ZM126.212 130.392C126.322 130.294 126.401 130.222 126.421 130.202C126.488 130.135 127.003 129.842 127.252 129.703L127.916 129.787V130.036L127.418 130.617C127.03 130.922 126.255 131.547 126.255 131.614C126.255 131.667 125.98 131.858 125.761 132.01C125.641 132.094 125.537 132.165 125.508 132.195C125.441 132.261 125.092 132.223 124.926 132.195V131.946L125.009 131.614L125.342 131.198C125.571 130.969 125.967 130.613 126.212 130.392L126.212 130.392L126.212 130.392L126.212 130.392ZM117.367 125.635C117.367 125.635 116.537 126.881 116.786 126.88C117.003 126.88 117.534 125.967 117.534 125.967L118.946 123.558C119.256 123.035 119.73 122.259 120.129 121.606C120.511 120.98 120.823 120.467 120.856 120.402C120.882 120.351 120.95 120.24 121.033 120.103C121.165 119.888 121.335 119.609 121.437 119.406C121.603 119.073 121.769 118.741 121.852 118.492C121.881 118.405 121.852 118.132 121.686 118.326C121.52 118.52 121.105 118.907 121.105 118.907C121.105 118.907 119.859 121.233 119.776 121.399C119.71 121.532 118.143 124.278 117.367 125.635ZM75.7686 129.128C75.7686 129.128 77.0144 126.802 78.094 125.723C78.2297 125.587 78.3653 125.562 78.6365 125.512L78.6366 125.512C78.6975 125.501 78.7653 125.489 78.8415 125.473L80.4196 125.307C80.7462 125.307 81.168 125.286 81.5949 125.264L81.5949 125.264H81.595L81.595 125.264C82.1449 125.236 82.7032 125.208 83.0772 125.224C83.8609 125.259 84.6581 125.307 85.0705 125.473C85.6891 125.723 86.5655 126.221 86.6485 126.636C86.7315 127.051 86.6876 128.019 86.6485 128.214C86.4825 129.045 86.1501 129.709 85.7349 130.374C85.3197 131.038 83.2764 133.377 81.4992 135.108C79.8181 136.745 78.813 137.609 76.9312 139.011C75.2215 140.285 72.3633 142.001 72.3633 142.001C72.3633 142.001 71.2837 142.25 71.0344 142.167C70.7697 142.079 70.5909 141.942 70.5362 141.669C70.528 141.628 70.5159 141.592 70.5033 141.554C70.4317 141.34 70.3391 141.063 70.7853 139.426C71.2042 137.89 72.0136 136.322 72.7437 134.907L72.7437 134.907L72.7437 134.907L72.7437 134.907C72.9291 134.548 73.1094 134.198 73.2769 133.862C74.2693 131.869 75.7686 129.128 75.7686 129.128ZM103.924 135.108C103.852 135.357 103.856 135.791 103.924 135.938C103.992 136.085 104.048 136.167 104.173 136.27C104.375 136.437 104.696 136.443 105.086 136.437C105.419 136.431 106.24 136.246 106.664 136.104C107.163 135.938 107.716 135.734 108.076 135.44C108.483 135.108 108.889 134.677 109.073 134.028C109.25 133.403 109.322 132.616 108.99 132.367C108.76 132.194 108.526 132.272 108.254 132.363L108.242 132.367C107.993 132.45 107.32 132.748 106.747 133.031C105.979 133.411 105.419 133.696 104.837 134.111C104.408 134.418 103.995 134.859 103.924 135.108ZM82.9112 141.171C82.7769 141.037 82.9152 140.084 83.2434 139.509C83.5756 138.928 84.4842 137.824 85.4028 136.852L85.5325 136.714L85.5325 136.714C86.1192 136.093 86.605 135.578 87.1469 135.191C87.173 135.172 87.1994 135.153 87.2258 135.133C87.4028 135.003 87.5837 134.869 87.7283 134.942C87.8672 135.011 87.7502 135.193 87.6619 135.331L87.6452 135.357C87.0638 136.27 86.6486 136.935 86.3163 137.516C85.9477 138.161 85.121 139.593 84.5722 140.257C84.5321 140.306 84.4926 140.354 84.4538 140.401L84.4534 140.402C84.2242 140.681 84.0186 140.932 83.8247 141.088C83.787 141.118 83.7488 141.15 83.7109 141.182C83.565 141.304 83.4226 141.424 83.3264 141.42C83.1525 141.412 83.0607 141.32 82.9424 141.202L82.9112 141.171Z" fill="#985F5F"/>
</svg>
