<svg width="440" height="956" viewBox="0 0 440 956" fill="none" xmlns="http://www.w3.org/2000/svg">
<g clip-path="url(#clip0_810_3551)">
<rect width="440" height="956" fill="white"/>
<path d="M153 57L-6 11V441C5.5 456.667 30 488.9 36 492.5C42 496.1 80.8333 517.667 99.5 528C109.667 523.167 131.7 513.7 138.5 514.5C147 515.5 205.5 518 213.5 521.5C219.9 524.3 264.167 507.667 285.5 499L272.5 420L221 316.5L159.5 219.5L221 152.5L153 57Z" fill="#FFF3E3" fill-opacity="0.7"/>
<path d="M371.626 522L454.626 492L450.625 959.5C419.792 960.5 352.825 962.7 331.625 963.5C310.425 964.3 268.792 943.833 250.626 933.5L219.125 903C206.959 887.667 182.326 856 181.126 852C179.926 848 187.626 809.333 191.626 790.5C204.626 779.667 230.626 757.2 230.626 754C230.626 750.8 252.292 726.667 263.126 715C260.459 703 254.226 677.8 250.626 673C247.026 668.2 209.792 617.333 191.626 592.5L230.626 522L263.126 528.5L371.626 522Z" fill="#FFF3E3" fill-opacity="0.7"/>
<rect width="440" height="956" fill="white" fill-opacity="0.02"/>
</g>
<defs>
<clipPath id="clip0_810_3551">
<rect width="440" height="956" fill="white"/>
</clipPath>
</defs>
</svg>
